<svg width="31" height="26" viewBox="0 0 31 26" fill="none" xmlns="http://www.w3.org/2000/svg">
<path d="M30.5241 3.58268C29.4107 4.07601 28.2147 4.40934 26.9574 4.56001C28.2401 3.79201 29.2241 2.57334 29.6881 1.12268C28.4881 1.83468 27.1587 2.35201 25.7441 2.62934C24.6107 1.42401 22.9974 0.669342 21.2107 0.669342C17.7814 0.669342 15.0001 3.45068 15.0001 6.88268C15.0001 7.36801 15.0561 7.84001 15.1601 8.29601C9.99606 8.03601 5.42139 5.56268 2.35739 1.80534C1.82406 2.72534 1.51739 3.79201 1.51739 4.92801C1.51739 7.08268 2.61472 8.98534 4.28006 10.0987C3.26139 10.0653 2.30406 9.78668 1.46672 9.32134V9.40134C1.46672 12.4107 3.60672 14.9213 6.44939 15.492C5.92672 15.6333 5.37872 15.708 4.81339 15.708C4.41339 15.708 4.02272 15.6707 3.64406 15.5987C4.43472 18.0653 6.72806 19.8627 9.44672 19.9107C7.32006 21.5773 4.64139 22.5707 1.73206 22.5707C1.23072 22.5707 0.736056 22.5413 0.24939 22.484C2.99872 24.248 6.26272 25.2747 9.76939 25.2747C21.1961 25.2747 27.4427 15.8107 27.4427 7.60268C27.4427 7.33601 27.4361 7.06667 27.4241 6.80001C28.6374 5.92267 29.6907 4.83068 30.5214 3.58668L30.5241 3.58268Z" fill="#1DA1F2"/>
</svg>
